<svg width="32" height="32" viewBox="0 0 32 32" fill="none" xmlns="http://www.w3.org/2000/svg">
<path d="M29.0419 14.7969C29.4429 14.4324 29.4429 13.4118 29.4064 12.5004C29.4064 11.5892 29.2971 11.7715 28.8597 12.0267C28.4587 12.2819 27.5473 12.5371 27.5473 12.5371C27.5473 12.5371 28.167 11.735 28.313 11.2977C28.4587 10.8968 28.4587 10.7873 27.511 10.7508C26.7091 10.7144 25.2146 11.4435 24.8501 11.6257C26.2352 8.63676 26.3081 6.08508 26.3081 5.61132C26.4174 5.46556 26.7091 5.0646 26.7091 4.44492C26.7091 4.11692 26.6362 3.7158 26.4174 3.27852C25.7249 1.82044 24.1939 1.78396 24.0482 1.78396H24.0117L23.7565 1.82044L24.1574 2.47644L23.3192 2.29436L23.064 2.25788L23.1005 2.51292C23.3555 4.00732 23.8294 4.08044 24.4856 6.12156C24.5949 6.48604 24.6313 6.8142 24.6313 7.14236C24.6313 8.05356 24.2669 8.8918 23.9752 9.4022C24.0117 9.147 24.0117 8.92828 24.0117 8.67324C24.0117 7.25164 23.6837 5.79356 22.7358 4.299C21.4601 2.25788 19.3459 1.92972 19.3096 1.92972L18.945 1.8934L20.3666 4.18972C19.9293 3.971 19.4918 3.971 19.3096 3.971H19.2002L18.9814 4.00748L19.5283 5.53836C19.2731 5.3926 18.9814 5.24684 18.7264 5.24684C18.6534 5.24684 18.544 5.28332 18.4712 5.35612C18.2525 5.61132 18.2525 6.12156 18.2525 6.52252C17.2683 5.28332 15.956 5.0646 15.9197 5.0646L15.701 5.02812L15.7374 5.24684C15.883 6.23084 16.3206 7.32444 16.5757 7.87132H16.4299C15.9195 7.90764 15.701 8.27228 15.5915 8.67324L14.8626 6.01228L14.6438 6.34028C14.3158 6.8142 13.9878 7.54316 13.769 7.94412C13.3317 6.92348 12.967 6.26732 12.6755 5.90284C12.712 5.1374 12.3838 5.02812 12.3838 5.02812C12.2381 5.10108 12.1651 5.21036 12.0923 5.31964L12.0194 5.3926C11.917 5.45846 11.83 5.54548 11.7642 5.6478C11.6549 5.57484 11.5454 5.3198 12.0922 4.66364C12.712 3.86172 12.4203 2.8774 11.7642 1.9662C11.1082 1.055 10.6342 1.1278 10.0874 2.18492C9.50431 3.24204 9.21263 4.18972 9.21263 4.18972C9.21263 4.18972 8.62943 3.82524 7.60879 4.00732C6.58815 4.2262 7.09839 4.8094 7.42655 5.10092C7.75455 5.3926 8.04623 5.7206 8.30143 6.15804C8.55647 6.59548 9.28543 6.34044 9.46783 6.41324C9.61359 6.48604 10.3426 7.83484 10.5613 8.27228L9.75935 7.83484L9.90527 9.32924L8.81167 8.05356C7.93679 6.74124 6.66111 4.91868 6.44239 4.37196C6.07791 3.49708 7.24431 3.67932 7.17135 3.0598C7.09855 2.44012 7.60879 1.67452 7.93679 1.49228C8.26479 1.31004 8.08271 1.1278 7.53583 1.1278C6.98911 1.1278 5.82271 0.799805 5.56751 0.799805C5.31247 0.799805 5.23951 1.78396 5.23951 1.78396C5.23951 1.78396 4.80207 0.872765 4.29183 1.12796C3.74495 1.383 3.34399 2.18492 3.34399 2.62236C3.34399 3.0598 4.76559 3.49724 5.38527 4.4814C6.00495 5.4654 7.02559 6.8142 7.35359 7.17868C7.68159 7.54316 7.09855 7.50668 6.29663 6.92348C5.49471 6.34028 5.05727 5.6478 3.96383 6.08508C2.87023 6.52252 2.57855 7.32444 2.57855 7.32444C2.57855 7.32444 2.97951 7.0694 3.38047 7.25164C3.78143 7.43388 3.38047 7.76204 3.59919 8.19932C3.85439 8.63676 5.45823 8.67324 6.40591 8.96476C7.39007 9.25644 7.09855 8.85548 6.95263 8.38156C6.80703 7.90764 7.35359 7.94412 7.71823 8.16284C7.93679 8.3086 8.30143 8.8918 8.55663 9.32924C8.70223 10.35 9.03039 11.2248 9.46783 12.0267C9.28543 12.1724 9.03039 12.4641 8.99391 13.0473C8.08271 11.808 7.64511 10.8238 7.64511 10.8238L7.31711 10.8966C7.31711 12.6464 7.60879 14.0678 7.86399 14.9427L6.15071 12.8651L6.11439 13.2296C6.07791 13.5211 6.04143 13.8128 6.04143 14.1043C6.04143 15.4531 6.44239 16.5465 6.77039 17.2392C5.23951 15.9998 4.61983 14.724 4.61983 14.724L4.29183 14.7969C4.32815 17.9316 6.55167 21.03 10.8894 21.03H10.9622C11.7642 21.431 12.3474 22.5244 12.3474 22.5244C9.68655 22.8161 9.03039 24.1648 8.33775 25.5499C7.64527 26.935 7.49935 27.336 8.41071 26.5705C9.32207 25.8051 10.7435 25.7686 11.6914 26.3153C12.639 26.8622 13.3682 26.9715 13.3682 26.9715C13.4774 28.6848 14.2794 29.9604 14.4251 29.924C14.5346 29.8876 16.9038 27.4454 17.5235 26.2425C18.143 25.0032 17.3411 24.748 17.5963 24.5657C17.8515 24.3835 19.4554 25.6958 19.4918 27.1537C19.5283 28.5753 18.5805 31.0176 18.5805 31.0176L20.2573 31.1998C20.1843 29.2315 20.9498 26.206 21.3507 25.1489C21.7517 24.092 22.8818 24.0555 23.2097 24.6387C23.5378 25.2584 23.7565 25.0761 24.3762 24.7115C24.9958 24.347 25.1781 24.748 25.3603 24.347C25.5426 23.946 24.1939 22.7796 23.6837 21.6862C23.1733 20.5926 23.0275 20.5196 22.4808 20.1552C21.9339 19.7542 22.1163 20.3374 22.2986 21.2123C22.4443 22.0872 21.6059 23.946 21.1685 24.2742C20.7312 24.6022 20.731 23.9825 21.4966 21.358C22.2256 18.7336 22.9182 17.4214 23.4285 16.656C23.9387 15.8905 24.5949 16.7652 25.7613 17.2392C26.9641 17.7129 28.2035 16.0363 28.3493 15.8176C28.4587 15.5988 27.9848 15.9268 27.8755 15.6718C27.7661 15.3801 28.6409 15.1614 29.0419 14.7969ZM26.1987 3.42412C26.381 3.82524 26.4539 4.15324 26.4539 4.44492C26.4539 4.73644 26.381 4.95532 26.3081 5.1374C26.0165 4.00748 25.1781 3.09612 24.7406 2.65884L24.4491 2.14844C24.8865 2.2214 25.7613 2.51292 26.1987 3.42428V3.42412ZM23.9752 10.2406C23.9752 10.2406 25.0688 8.85548 25.0688 7.1422C25.0688 6.77772 25.0323 6.37676 24.8866 6.01228C24.2304 4.04396 23.7929 3.82508 23.5378 2.69516L24.4491 2.87756C24.923 3.31484 25.8707 4.37196 26.0165 5.57484V5.61132C26.0165 6.04876 25.9435 9.4022 23.8294 12.9379C22.0798 15.854 20.0386 16.984 19.2366 17.3484C19.7834 16.911 20.6217 16.1091 21.5694 14.7969C21.7881 14.4689 22.0434 14.1043 22.2256 13.7763V13.7398C23.1005 12.3547 23.6837 10.9696 23.9752 10.2406ZM18.4347 11.5892C18.3618 11.0425 18.2525 10.5686 18.1067 10.1312L18.2525 8.01708C18.5077 8.16284 18.945 8.45452 19.1273 8.819L19.1637 8.89196C19.3824 9.47516 19.6011 10.0947 19.7469 10.678C19.8563 11.1883 19.9293 11.735 19.9293 12.2819C19.9293 13.7033 19.6011 15.1614 19.1273 16.1091C18.945 16.4372 18.7627 16.6924 18.6534 16.9475C18.6534 16.51 18.6899 15.9268 18.6899 15.2344C18.6534 14.1043 18.617 12.7192 18.4347 11.5892ZM18.3254 15.2708C18.3254 15.8905 18.3254 16.4372 18.289 16.8382C17.9973 16.182 17.5963 15.1249 17.2318 13.8857C16.7579 12.3547 16.3206 10.8238 16.1019 10.0217C16.7216 10.6051 17.815 11.7715 18.216 12.9744C18.289 13.7398 18.3254 14.5417 18.3254 15.2708ZM21.3507 10.7508V10.9696V11.006C21.3144 11.48 21.0957 12.6099 20.2573 14.1408C20.1478 14.3595 20.0385 14.5417 19.9293 14.724C20.1115 13.9585 20.2208 13.1566 20.2208 12.3182C20.2208 11.735 20.1478 11.1518 20.0386 10.6414C19.8928 9.9854 19.6741 9.3294 19.4189 8.70956L19.6376 7.10588C19.8928 7.17868 20.403 7.36092 20.731 7.94428C21.0227 8.70956 21.2414 9.62092 21.3507 10.7508ZM21.6789 11.0425C21.7154 10.9696 21.7517 10.8601 21.7882 10.7508C21.8611 10.6051 21.9704 10.4228 22.0069 10.3864C22.1526 10.4958 22.4078 11.2248 22.4443 11.2248C22.3714 12.2454 22.1526 13.1566 21.9704 13.6305C21.7517 13.9585 21.5694 14.2865 21.3144 14.6145C20.2573 16.1091 19.3459 16.8747 18.8722 17.2392C19.0909 16.7288 19.7106 15.8176 20.5853 14.2867C21.4237 12.7192 21.6059 11.5528 21.6789 11.0425ZM19.7469 2.40364C20.3666 2.58588 21.6789 3.1326 22.5536 4.51772C23.465 5.9758 23.7565 7.32444 23.7565 8.70972C23.7565 9.147 23.7201 9.58444 23.6837 10.0217C23.5014 10.4958 23.1368 11.3705 22.6266 12.3912C22.7358 11.7352 22.8453 10.9696 22.8453 10.1676C22.8453 9.36572 22.7723 8.5638 22.5536 7.76188C22.1163 6.19452 21.533 5.17388 21.205 4.69996L19.7469 2.40364ZM19.6011 4.33548C19.8928 4.37196 20.4395 4.4814 20.877 4.88236C21.1685 5.31964 21.7881 6.26748 22.1891 7.87116C22.3713 8.60028 22.4808 9.4022 22.4808 10.2041V10.4593C22.3714 10.2769 22.2256 10.0947 22.0069 10.0219C21.9704 10.0219 21.9339 10.0219 21.8976 10.0584C21.7882 10.1312 21.6789 10.204 21.6059 10.3134C21.4966 9.3294 21.2779 8.491 21.0227 7.7982V7.76188C20.6947 6.85068 20.3302 6.19452 20.1115 5.86652L19.6011 4.33548ZM18.8357 5.61132C19.1273 5.57484 19.8563 6.12172 19.8928 6.12172C20.0386 6.34028 20.2208 6.66844 20.403 7.10572C19.9656 6.77772 19.5283 6.74124 19.4918 6.74124H19.3459L19.1637 8.09004C18.9814 7.6526 18.8357 7.28796 18.6899 7.06924V6.63196C18.6899 6.19452 18.7627 5.6478 18.8357 5.61116V5.61132ZM16.2477 5.46556C16.7216 5.61116 17.7421 6.04876 18.4347 7.17868C18.5077 7.36108 18.6534 7.6526 18.7992 7.94412C18.6148 7.80726 18.4198 7.68538 18.216 7.57964L17.9973 7.47036L17.888 9.29276C17.5235 8.41804 17.1589 7.90764 17.1226 7.87132C16.8674 7.50668 16.4299 6.44972 16.2477 5.46556ZM16.5392 8.19932C16.6486 8.19932 16.7579 8.2358 16.9402 8.3086C17.1226 8.60028 17.487 9.21996 17.7786 10.1678C17.9245 10.6051 18.0338 11.079 18.1067 11.6257C18.1067 11.735 18.143 11.8809 18.143 12.0267C17.4506 10.7873 16.3206 9.76668 15.9926 9.43868V9.32924C15.9926 8.81884 16.1382 8.19932 16.5392 8.19932ZM14.0606 8.45452C14.0606 8.45452 14.4616 7.54316 14.8626 6.85068L15.701 9.87612C15.8832 10.5686 16.357 12.2454 16.9038 13.995C17.1954 14.9062 17.487 15.7081 17.7058 16.3643C16.7579 15.0155 15.1178 12.6827 14.6438 11.5528C14.1334 10.3134 14.0606 9.03756 14.0606 8.45452ZM11.1445 7.6526C11.1445 7.17868 11.3269 6.559 12.0194 5.903C11.9829 6.12156 11.9829 6.37676 11.9829 6.70476C11.9829 7.3974 12.0558 8.27228 12.3838 9.147C11.9829 9.00124 11.6549 8.81901 11.4726 8.67324C11.5091 8.70956 11.1446 8.3086 11.1446 7.65244L11.1445 7.6526ZM12.5661 9.62092C12.9307 10.3134 13.441 11.006 14.2794 11.5163C14.3158 11.5528 14.3158 11.6257 14.3522 11.6622C14.9355 12.9379 16.7944 15.6353 17.7058 16.8747C16.7579 16.2915 15.1541 15.2344 14.4616 14.3595C13.4408 13.0836 13.1858 11.9902 12.712 10.8603C12.4933 10.3134 12.1288 9.76668 11.8736 9.32924C12.0558 9.43868 12.311 9.54796 12.5661 9.62092ZM14.0605 10.9331C12.6026 9.80316 12.311 7.9806 12.311 6.74124C12.311 6.37676 12.3474 6.08524 12.3474 5.86652C12.639 6.19452 13.113 6.92348 13.6962 8.34508V8.45452C13.6962 8.96492 13.769 9.91244 14.0606 10.9331H14.0605ZM11.1083 8.8918C11.2906 9.11052 11.983 10.0219 12.384 10.9696C12.712 11.7715 12.9672 12.6099 13.5141 13.5576C12.0195 12.1724 10.7802 10.3864 10.3429 9.73036L10.197 8.38156L11.1083 8.89196V8.8918ZM10.1605 10.0948C10.7802 11.006 12.3477 13.2296 14.2066 14.5782C15.045 15.5988 16.904 16.8017 17.7787 17.312C15.4459 16.656 9.28575 14.396 8.95759 8.63676L10.1605 10.0948ZM17.633 17.6036C17.4507 17.6036 17.232 17.6401 17.0498 17.6401C15.0814 17.6401 13.4411 16.984 12.0925 16.0728C12.384 15.9633 12.7122 15.8176 13.0402 15.5988C14.7898 16.6924 16.5758 17.312 17.633 17.6036ZM7.79119 11.6622C8.08271 12.1726 8.52015 12.9014 9.13967 13.7033C9.17615 13.922 9.24911 14.1408 9.32207 14.396C9.79583 15.7811 10.6342 16.3278 11.6914 16.182C12.967 17.1297 14.5709 17.8588 16.5029 17.9681C16.2477 18.0046 16.029 18.0046 15.7738 18.0046C13.4774 18.0046 11.4362 17.2027 11.4362 17.2027C8.62943 15.9998 8.04623 13.594 8.00959 13.594C7.90031 13.0108 7.82735 12.3912 7.79087 11.6622H7.79119ZM8.37423 15.0886C8.92111 15.8904 9.79583 16.8382 11.2904 17.4944C11.2904 17.4944 13.368 18.2963 15.7374 18.2963C15.9197 18.2963 16.1382 18.2961 16.3206 18.2598C14.6438 18.843 13.3317 19.098 12.311 19.098C10.78 19.098 9.97823 18.5878 9.61359 18.0046C9.10319 17.2027 8.73871 16.2185 8.52015 15.6718C8.55647 15.6718 8.48367 15.4531 8.37423 15.0886ZM6.47887 14.1043V13.7033L8.22847 15.8176C8.44719 16.3643 8.81167 17.3484 9.32207 18.1868C9.75935 18.9158 10.7072 19.4627 12.3109 19.4627C13.6597 19.4627 15.4821 19.0617 17.888 18.0411C18.0702 18.0046 18.216 17.9316 18.3982 17.8952L18.4347 17.9316L18.544 17.8588H18.5805C17.9608 18.5148 16.0654 20.1916 12.1288 20.6291C11.9464 20.6656 11.7642 20.6656 11.5819 20.6656C9.32207 20.3011 7.71823 17.9316 7.42655 17.4944C7.09855 17.0204 6.47887 15.7446 6.47887 14.1043ZM4.76559 15.4896C5.20303 16.1091 6.00495 17.0932 7.28079 18.0046C7.75455 18.6608 8.84815 20.0459 10.4155 20.7019C6.95263 20.4468 5.05711 18.0776 4.76559 15.4896ZM20.0386 25.8051C19.8563 26.3518 19.4918 25.1124 18.8357 24.4564C18.1795 23.8368 17.1589 23.4723 17.1589 23.4723C17.1589 23.4723 17.1953 22.3787 16.6851 21.5403C16.2842 20.9206 15.3728 20.4833 14.9718 20.3374C15.3413 20.2043 15.7061 20.0584 16.0654 19.9C17.5598 20.5196 18.6899 22.1235 19.5646 22.8891C20.4395 23.691 20.1843 25.2948 20.0386 25.8051ZM16.8673 19.5355C17.6328 19.098 18.1795 18.6608 18.544 18.3326C18.7627 18.5878 19.2731 19.171 19.7469 20.0824C20.403 21.358 20.403 22.2694 20.403 22.2694C18.8357 21.5768 17.2683 19.9729 16.8673 19.5355ZM21.7153 18.2233C21.4966 19.6449 21.0957 20.9571 21.0957 20.9571C20.5853 19.3168 19.6741 18.1504 19.3096 17.7129C19.7833 17.5307 20.7675 17.0204 21.9339 15.9633C21.8976 16.3278 21.8611 17.1662 21.7153 18.2233ZM23.5378 15.4166C23.392 16.6195 22.4808 17.3484 22.4808 17.3484V15.3801C22.8818 14.9427 23.2827 14.4324 23.6837 13.8857C23.6107 14.2137 23.6472 14.5052 23.5378 15.4166Z" fill="white"/>
</svg>
